<svg width="32" height="32" viewBox="0 0 32 32" fill="none" xmlns="http://www.w3.org/2000/svg">
<path d="M5 22.3175L16.2143 9.5L27 17.8289V26.5C27 27.8807 25.8807 29 24.5 29H9.5C7.01472 29 5 26.9853 5 24.5V22.3175Z" fill="url(#paint0_radial_21523_2454)"/>
<path d="M5 14.718C5 12.8617 6.50483 11.3568 8.36112 11.3568H24.2143L27 9.0354V17.5002C27 18.881 25.8807 20.0002 24.5 20.0002H9.75C7.12665 20.0002 5 22.1269 5 24.7502V24.8569V14.718Z" fill="url(#paint1_linear_21523_2454)"/>
<path d="M5 14.718C5 12.8617 6.50483 11.3568 8.36112 11.3568H24.2143L27 9.0354V17.5002C27 18.881 25.8807 20.0002 24.5 20.0002H9.75C7.12665 20.0002 5 22.1269 5 24.7502V24.8569V14.718Z" fill="url(#paint2_radial_21523_2454)" fill-opacity="0.6"/>
<path d="M5 14.718C5 12.8617 6.50483 11.3568 8.36112 11.3568H24.2143L27 9.0354V17.5002C27 18.881 25.8807 20.0002 24.5 20.0002H9.75C7.12665 20.0002 5 22.1269 5 24.7502V24.8569V14.718Z" fill="url(#paint3_radial_21523_2454)" fill-opacity="0.1"/>
<path d="M5 7.5C5 5.01472 7.01472 3 9.5 3H24.5C25.8807 3 27 4.11929 27 5.5V9.5C27 10.8807 25.8807 12 24.5 12H9.21282C6.88614 12 5 13.8861 5 16.2128V7.5Z" fill="url(#paint4_linear_21523_2454)"/>
<path d="M5 7.5C5 5.01472 7.01472 3 9.5 3H24.5C25.8807 3 27 4.11929 27 5.5V9.5C27 10.8807 25.8807 12 24.5 12H9.21282C6.88614 12 5 13.8861 5 16.2128V7.5Z" fill="url(#paint5_radial_21523_2454)" fill-opacity="0.8"/>
<rect x="2" y="14" width="12" height="12" rx="2.75" fill="url(#paint6_radial_21523_2454)"/>
<rect x="2" y="14" width="12" height="12" rx="2.75" fill="url(#paint7_radial_21523_2454)" fill-opacity="0.65"/>
<path d="M11.9001 16.75L10.5001 23.2492L8.8266 23.25L8.0001 19.35L7.1349 23.25H5.44544L4.1001 16.7508H5.47999L6.3101 21.04L7.1349 16.7508H8.8266L9.6901 21.04L10.5001 16.7508L11.9001 16.75Z" fill="white"/>
<defs>
<radialGradient id="paint0_radial_21523_2454" cx="0" cy="0" r="1" gradientUnits="userSpaceOnUse" gradientTransform="translate(24.833 28.9995) scale(32.3952 15.112)">
<stop offset="0.180414" stop-color="#1657F4"/>
<stop offset="0.574542" stop-color="#0036C4"/>
</radialGradient>
<linearGradient id="paint1_linear_21523_2454" x1="5" y1="16.9462" x2="20.6447" y2="16.9462" gradientUnits="userSpaceOnUse">
<stop stop-color="#66C0FF"/>
<stop offset="0.25606" stop-color="#0094F0"/>
</linearGradient>
<radialGradient id="paint2_radial_21523_2454" cx="0" cy="0" r="1" gradientTransform="matrix(-13.776 15.3068 -30.2805 -41.8468 25.4286 9.55015)" gradientUnits="userSpaceOnUse">
<stop offset="0.140259" stop-color="#D471FF"/>
<stop offset="0.830508" stop-color="#509DF5" stop-opacity="0"/>
</radialGradient>
<radialGradient id="paint3_radial_21523_2454" cx="0" cy="0" r="1" gradientUnits="userSpaceOnUse" gradientTransform="translate(22.4399 19.9888) rotate(90) scale(13.3874 69.2167)">
<stop offset="0.283333" stop-color="#4F006F" stop-opacity="0"/>
<stop offset="1" stop-color="#4F006F"/>
</radialGradient>
<linearGradient id="paint4_linear_21523_2454" x1="5" y1="9.53504" x2="25.4237" y2="9.85143" gradientUnits="userSpaceOnUse">
<stop stop-color="#9DEAFF"/>
<stop offset="0.201276" stop-color="#3BD5FF"/>
</linearGradient>
<radialGradient id="paint5_radial_21523_2454" cx="0" cy="0" r="1" gradientTransform="matrix(-19.5583 4.87045 -12.2557 -49.6236 25.4286 3.42524)" gradientUnits="userSpaceOnUse">
<stop offset="0.0606583" stop-color="#E4A7FE"/>
<stop offset="0.538869" stop-color="#E4A7FE" stop-opacity="0"/>
</radialGradient>
<radialGradient id="paint6_radial_21523_2454" cx="0" cy="0" r="1" gradientUnits="userSpaceOnUse" gradientTransform="translate(2 14) rotate(45) scale(16.9706)">
<stop offset="0.0811439" stop-color="#367AF2"/>
<stop offset="0.871875" stop-color="#001A8F"/>
</radialGradient>
<radialGradient id="paint7_radial_21523_2454" cx="0" cy="0" r="1" gradientUnits="userSpaceOnUse" gradientTransform="translate(8 21.2) rotate(90) scale(8.4 9.57373)">
<stop offset="0.586954" stop-color="#2763E5" stop-opacity="0"/>
<stop offset="0.973806" stop-color="#58AAFE"/>
</radialGradient>
</defs>
</svg>
