<svg width="32" height="32" viewBox="0 0 32 32" fill="none" xmlns="http://www.w3.org/2000/svg">
<path d="M5 11.5C5 9.567 6.567 8 8.5 8H27V26.5C27 27.8807 25.8807 29 24.5 29H9.75C7.12665 29 5 26.8734 5 24.25V11.5Z" fill="url(#paint0_radial_21523_2455)"/>
<path d="M5 11.5C5 9.567 6.567 8 8.5 8H27V26.5C27 27.8807 25.8807 29 24.5 29H9.75C7.12665 29 5 26.8734 5 24.25V11.5Z" fill="url(#paint1_radial_21523_2455)" fill-opacity="0.7"/>
<path d="M5 15.5C5 13.567 6.567 12 8.5 12H19.5H18.5C17.1193 12 16 13.1193 16 14.5V18.5C16 19.8807 14.8807 21 13.5 21H9.5C7.01472 21 5 23.0147 5 25.5V15.5Z" fill="url(#paint2_linear_21523_2455)"/>
<path d="M5 15.5C5 13.567 6.567 12 8.5 12H19.5H18.5C17.1193 12 16 13.1193 16 14.5V18.5C16 19.8807 14.8807 21 13.5 21H9.5C7.01472 21 5 23.0147 5 25.5V15.5Z" fill="url(#paint3_linear_21523_2455)" fill-opacity="0.3"/>
<path d="M5 7.75C5 5.12665 7.12665 3 9.75 3H19V12H9.75C7.12665 12 5 14.1266 5 16.75V7.75Z" fill="url(#paint4_linear_21523_2455)"/>
<path d="M5 7.75C5 5.12665 7.12665 3 9.75 3H19V12H9.75C7.12665 12 5 14.1266 5 16.75V7.75Z" fill="url(#paint5_radial_21523_2455)"/>
<path d="M5 7.75C5 5.12665 7.12665 3 9.75 3H19V12H9.75C7.12665 12 5 14.1266 5 16.75V7.75Z" fill="url(#paint6_linear_21523_2455)"/>
<rect width="11" height="9" rx="2.5" transform="matrix(-1 0 0 1 27 3)" fill="url(#paint7_radial_21523_2455)"/>
<rect x="2" y="14" width="12" height="12" rx="2.75" fill="url(#paint8_radial_21523_2455)"/>
<rect x="2" y="14" width="12" height="12" rx="2.75" fill="url(#paint9_radial_21523_2455)" fill-opacity="0.3"/>
<path d="M10.9927 23.25H9.23807L8.1363 21.1785C8.09701 21.106 8.06678 21.0486 8.04562 21.0063C8.02748 20.9609 8.00784 20.9096 7.98668 20.8522H7.96854C7.94134 20.9247 7.91564 20.9836 7.89146 21.0289C7.86728 21.0743 7.83856 21.1302 7.80532 21.1967L6.66274 23.25H5.00781L6.99372 19.9955L5.14383 16.75H6.87584L7.85519 18.5994C7.89448 18.6749 7.92773 18.7414 7.95494 18.7988C7.98517 18.8532 8.01539 18.9182 8.04562 18.9937H8.06376C8.10607 18.9061 8.13932 18.8366 8.1635 18.7852C8.19071 18.7338 8.22698 18.6659 8.27232 18.5812L9.28795 16.75H10.9383L9.06124 19.9456L10.9927 23.25Z" fill="white"/>
<defs>
<radialGradient id="paint0_radial_21523_2455" cx="0" cy="0" r="1" gradientTransform="matrix(-20.7778 -21.5833 17.5074 -15.3503 27 30.75)" gradientUnits="userSpaceOnUse">
<stop offset="0.0647233" stop-color="#379539"/>
<stop offset="0.422149" stop-color="#297C2D"/>
<stop offset="0.703448" stop-color="#15561C"/>
</radialGradient>
<radialGradient id="paint1_radial_21523_2455" cx="0" cy="0" r="1" gradientTransform="matrix(-8.78472 -8.38542 6.80196 -6.49012 11.7222 15.5833)" gradientUnits="userSpaceOnUse">
<stop stop-color="#073B10"/>
<stop offset="0.992234" stop-color="#084A13" stop-opacity="0"/>
</radialGradient>
<linearGradient id="paint2_linear_21523_2455" x1="5" y1="18.75" x2="16.1044" y2="18.75" gradientUnits="userSpaceOnUse">
<stop stop-color="#52D17C"/>
<stop offset="0.328512" stop-color="#4AA647"/>
</linearGradient>
<linearGradient id="paint3_linear_21523_2455" x1="15.875" y1="12" x2="15.875" y2="21.377" gradientUnits="userSpaceOnUse">
<stop stop-color="#29852F"/>
<stop offset="0.499968" stop-color="#4AA647" stop-opacity="0"/>
</linearGradient>
<linearGradient id="paint4_linear_21523_2455" x1="5.51568" y1="14.3474" x2="18.4512" y2="3.1282" gradientUnits="userSpaceOnUse">
<stop stop-color="#66D052"/>
<stop offset="1" stop-color="#85E972"/>
</linearGradient>
<radialGradient id="paint5_radial_21523_2455" cx="0" cy="0" r="1" gradientUnits="userSpaceOnUse" gradientTransform="translate(18.496 8.9604) rotate(-180) scale(7.01464 14.8509)">
<stop offset="0.292495" stop-color="#4EB43B"/>
<stop offset="1" stop-color="#72CC61" stop-opacity="0"/>
</radialGradient>
<linearGradient id="paint6_linear_21523_2455" x1="11.3114" y1="9.52731" x2="5" y2="9.52731" gradientUnits="userSpaceOnUse">
<stop offset="0.183694" stop-color="#C0E075" stop-opacity="0"/>
<stop offset="1" stop-color="#D1EB95"/>
</linearGradient>
<radialGradient id="paint7_radial_21523_2455" cx="0" cy="0" r="1" gradientTransform="matrix(12.4014 -10.2595 -10.1709 -12.5095 -1.40136 10.2595)" gradientUnits="userSpaceOnUse">
<stop offset="0.439983" stop-color="#79E96D"/>
<stop offset="1" stop-color="#D0EB76"/>
</radialGradient>
<radialGradient id="paint8_radial_21523_2455" cx="0" cy="0" r="1" gradientUnits="userSpaceOnUse" gradientTransform="translate(2 14) rotate(45) scale(16.9706 48.3105)">
<stop stop-color="#20A85E"/>
<stop offset="0.94375" stop-color="#09442A"/>
</radialGradient>
<radialGradient id="paint9_radial_21523_2455" cx="0" cy="0" r="1" gradientUnits="userSpaceOnUse" gradientTransform="translate(8 21.2) rotate(90) scale(8.4 9.675)">
<stop offset="0.580357" stop-color="#33A662" stop-opacity="0"/>
<stop offset="0.973806" stop-color="#98F0B0"/>
</radialGradient>
</defs>
</svg>
