<svg width="32" height="32" viewBox="0 0 32 32" fill="none" xmlns="http://www.w3.org/2000/svg">
<path d="M13.5 18.5C18.0563 18.5 21.75 14.8063 21.75 10.25C21.75 5.69365 18.0563 2 13.5 2C8.94365 2 5.25 5.69365 5.25 10.25C5.25 14.8063 8.94365 18.5 13.5 18.5Z" fill="url(#paint0_linear_21523_2453)"/>
<path d="M13.5 18.5C18.0563 18.5 21.75 14.8063 21.75 10.25C21.75 5.69365 18.0563 2 13.5 2C8.94365 2 5.25 5.69365 5.25 10.25C5.25 14.8063 8.94365 18.5 13.5 18.5Z" fill="url(#paint1_radial_21523_2453)" fill-opacity="0.2"/>
<path d="M13.5 18.5C18.0563 18.5 21.75 14.8063 21.75 10.25C21.75 5.69365 18.0563 2 13.5 2C8.94365 2 5.25 5.69365 5.25 10.25C5.25 14.8063 8.94365 18.5 13.5 18.5Z" fill="url(#paint2_radial_21523_2453)" fill-opacity="0.31"/>
<path d="M13.5 18.5C18.0563 18.5 21.75 14.8063 21.75 10.25C21.75 5.69365 18.0563 2 13.5 2C8.94365 2 5.25 5.69365 5.25 10.25C5.25 14.8063 8.94365 18.5 13.5 18.5Z" fill="url(#paint3_radial_21523_2453)" fill-opacity="0.7"/>
<path d="M20.9299 24.14C24.8345 24.14 27.9999 20.9747 27.9999 17.07C27.9999 13.1653 24.8345 10 20.9299 10C17.0252 10 13.8599 13.1653 13.8599 17.07C13.8599 20.9747 17.0252 24.14 20.9299 24.14Z" fill="url(#paint4_linear_21523_2453)"/>
<path d="M20.9299 24.14C24.8345 24.14 27.9999 20.9747 27.9999 17.07C27.9999 13.1653 24.8345 10 20.9299 10C17.0252 10 13.8599 13.1653 13.8599 17.07C13.8599 20.9747 17.0252 24.14 20.9299 24.14Z" fill="url(#paint5_radial_21523_2453)" fill-opacity="0.5"/>
<path d="M20.9299 24.14C24.8345 24.14 27.9999 20.9747 27.9999 17.07C27.9999 13.1653 24.8345 10 20.9299 10C17.0252 10 13.8599 13.1653 13.8599 17.07C13.8599 20.9747 17.0252 24.14 20.9299 24.14Z" fill="url(#paint6_radial_21523_2453)" fill-opacity="0.7"/>
<path d="M14.375 30C17.6197 30 20.25 27.3697 20.25 24.125C20.25 20.8803 17.6197 18.25 14.375 18.25C11.1303 18.25 8.5 20.8803 8.5 24.125C8.5 27.3697 11.1303 30 14.375 30Z" fill="url(#paint7_linear_21523_2453)"/>
<path d="M14.375 30C17.6197 30 20.25 27.3697 20.25 24.125C20.25 20.8803 17.6197 18.25 14.375 18.25C11.1303 18.25 8.5 20.8803 8.5 24.125C8.5 27.3697 11.1303 30 14.375 30Z" fill="url(#paint8_linear_21523_2453)" fill-opacity="0.32"/>
<rect x="2" y="14" width="12" height="12" rx="2.75" fill="url(#paint9_radial_21523_2453)"/>
<rect x="2" y="14" width="12" height="12" rx="2.75" fill="url(#paint10_radial_21523_2453)" fill-opacity="0.6"/>
<path d="M5.59375 21.9723L6.82625 21.3289C6.96521 21.6098 7.14646 21.8167 7.37 21.9496C7.59656 22.0826 7.84427 22.149 8.11312 22.149C8.41219 22.149 8.64026 22.0886 8.79734 21.9678C8.95443 21.8439 9.03297 21.6581 9.03297 21.4104C9.03297 21.2171 8.95745 21.054 8.80641 20.9211C8.65536 20.7851 8.38802 20.6824 8.00437 20.6129C7.27333 20.48 6.74167 20.2474 6.40937 19.9151C6.0801 19.5828 5.91547 19.169 5.91547 18.6736C5.91547 18.0573 6.13297 17.5649 6.56797 17.1964C7.00297 16.8278 7.57693 16.6436 8.28984 16.6436C8.77016 16.6436 9.19307 16.7417 9.55859 16.9381C9.92411 17.1344 10.2141 17.4154 10.4286 17.7809L9.22328 18.4017C9.09036 18.1963 8.94687 18.0482 8.79281 17.9576C8.63875 17.864 8.44542 17.8171 8.21281 17.8171C7.9349 17.8171 7.72344 17.8776 7.57844 17.9984C7.43646 18.1192 7.36547 18.2763 7.36547 18.4696C7.36547 18.6358 7.43344 18.7823 7.56938 18.9092C7.70833 19.033 7.98625 19.1342 8.40312 19.2128C9.10396 19.3457 9.62656 19.5874 9.97094 19.9378C10.3183 20.2852 10.492 20.7247 10.492 21.2564C10.492 21.9028 10.2851 22.4149 9.87125 22.7925C9.4574 23.1701 8.86682 23.3589 8.09953 23.3589C7.5437 23.3589 7.04224 23.238 6.59516 22.9964C6.15109 22.7517 5.81729 22.4103 5.59375 21.9723Z" fill="white"/>
<defs>
<linearGradient id="paint0_linear_21523_2453" x1="7.3125" y1="4.0625" x2="18.3125" y2="18.5" gradientUnits="userSpaceOnUse">
<stop stop-color="#00E3DF"/>
<stop offset="0.410156" stop-color="#0097A8"/>
<stop offset="1" stop-color="#007791"/>
</linearGradient>
<radialGradient id="paint1_radial_21523_2453" cx="0" cy="0" r="1" gradientUnits="userSpaceOnUse" gradientTransform="translate(16.0244 20.7824) rotate(-112.448) scale(12.6679 22.7762)">
<stop offset="0.28573" stop-color="#003B5D"/>
<stop offset="0.612265" stop-color="#004A6C" stop-opacity="0.688298"/>
<stop offset="0.968041" stop-color="#006F94" stop-opacity="0"/>
</radialGradient>
<radialGradient id="paint2_radial_21523_2453" cx="0" cy="0" r="1" gradientUnits="userSpaceOnUse" gradientTransform="translate(16.3156 17.1424) rotate(-112.063) scale(10.6919 19.2)">
<stop offset="0.259744" stop-color="#002A42"/>
<stop offset="0.612265" stop-color="#004261" stop-opacity="0.688298"/>
<stop offset="0.968041" stop-color="#006F94" stop-opacity="0"/>
</radialGradient>
<radialGradient id="paint3_radial_21523_2453" cx="0" cy="0" r="1" gradientUnits="userSpaceOnUse" gradientTransform="translate(18.2084 2.8736) rotate(124.447) scale(8.94488)">
<stop stop-color="#78EDFF"/>
<stop offset="1" stop-color="#2CCFCA" stop-opacity="0"/>
</radialGradient>
<linearGradient id="paint4_linear_21523_2453" x1="15.6274" y1="11.7675" x2="25.054" y2="24.14" gradientUnits="userSpaceOnUse">
<stop stop-color="#00E3DF"/>
<stop offset="0.476427" stop-color="#00A2B8"/>
<stop offset="0.945063" stop-color="#00637C"/>
</linearGradient>
<radialGradient id="paint5_radial_21523_2453" cx="0" cy="0" r="1" gradientUnits="userSpaceOnUse" gradientTransform="translate(16.8793 22.9617) rotate(-70.8012) scale(8.7341 15.7369)">
<stop stop-color="#003B5D"/>
<stop offset="0.492035" stop-color="#004C6C" stop-opacity="0.72"/>
<stop offset="0.968041" stop-color="#007A86" stop-opacity="0"/>
</radialGradient>
<radialGradient id="paint6_radial_21523_2453" cx="0" cy="0" r="1" gradientUnits="userSpaceOnUse" gradientTransform="translate(24.9648 10.7486) rotate(124.447) scale(7.66549)">
<stop stop-color="#78EDFF"/>
<stop offset="1" stop-color="#2CCFCA" stop-opacity="0"/>
</radialGradient>
<linearGradient id="paint7_linear_21523_2453" x1="10.2625" y1="18.8375" x2="16.1375" y2="30.5875" gradientUnits="userSpaceOnUse">
<stop offset="0.0534989" stop-color="#75FFF6"/>
<stop offset="0.51144" stop-color="#00C7D1"/>
<stop offset="0.96002" stop-color="#0096AD"/>
</linearGradient>
<linearGradient id="paint8_linear_21523_2453" x1="20.223" y1="30.0006" x2="17.0836" y2="25.5943" gradientUnits="userSpaceOnUse">
<stop offset="0.259744" stop-color="#0E5A5D"/>
<stop offset="0.535716" stop-color="#126C6B" stop-opacity="0.688298"/>
<stop offset="0.968041" stop-color="#1C948A" stop-opacity="0"/>
</linearGradient>
<radialGradient id="paint9_radial_21523_2453" cx="0" cy="0" r="1" gradientUnits="userSpaceOnUse" gradientTransform="translate(2 14) rotate(45) scale(16.9706)">
<stop offset="0.0625" stop-color="#00B6BD"/>
<stop offset="0.890131" stop-color="#00495C"/>
</radialGradient>
<radialGradient id="paint10_radial_21523_2453" cx="0" cy="0" r="1" gradientUnits="userSpaceOnUse" gradientTransform="translate(8 21.2) rotate(90) scale(8.4 9.5625)">
<stop offset="0.566964" stop-color="#1E8581" stop-opacity="0"/>
<stop offset="0.973806" stop-color="#1ECBE6"/>
</radialGradient>
</defs>
</svg>
